<?xml version="1.0" encoding="UTF-8"?>
<svg id="Layer_2" data-name="Layer 2" xmlns="http://www.w3.org/2000/svg" viewBox="0 0 692.84 693.06">
  <defs>
    <style>
      .cls-1 {
        fill: #fbae3c;
        stroke-width: 0px;
      }
    </style>
  </defs>
  <g id="Layer_2-2" data-name="Layer 2">
    <g>
      <rect class="cls-1" x="252.27" y="53.04" width="198.38" height="82.72" rx="12" ry="12" transform="translate(36.19 276.17) rotate(-45)"/>
      <rect class="cls-1" x="330.26" y="131.03" width="198.38" height="82.72" rx="12" ry="12" transform="translate(3.88 354.16) rotate(-45)"/>
      <rect class="cls-1" x="502.18" y="170.12" width="92.14" height="91.91" rx="12" ry="12" transform="translate(7.79 450.96) rotate(-45)"/>
      <rect class="cls-1" x="586.68" y="254.61" width="92.14" height="91.91" rx="12" ry="12" transform="translate(-27.2 535.45) rotate(-45)"/>
      <path class="cls-1" d="M604.74,393.56l-75.17,75.17c-75.47,75.47-202.97,71.48-283.33-8.88l-13.02-13.02c-80.36-80.36-84.35-207.86-8.88-283.33.59-.59,1.22-1.12,1.89-1.58,2.58-1.8,5.68-2.64,8.8-2.56,3.92.15,7.9,1.75,10.97,4.82l213.11,213.11,17.48-17.48-58.74-58.74c-6.14-6.14-6.45-15.89-.68-21.66l36.71-36.71c5.77-5.77,15.52-5.46,21.66.68l128.54,128.54c6.14,6.14,6.45,15.89.68,21.66Z"/>
      <path class="cls-1" d="M437.17,561.14l-46.2,46.2L0,693.06l85.73-390.97,46.2-46.2c-.95,8.18-1.48,16.44-1.59,24.71-.89,66.4,25.45,135.27,78.2,188.01l15.91,15.91c52.75,52.75,121.61,79.08,188.01,78.2,8.28-.11,16.53-.64,24.71-1.59Z"/>
      <polygon class="cls-1" points="340.9 7.84 174.69 97.19 120.43 228.32 340.9 7.84"/>
      <polygon class="cls-1" points="684.87 352.1 595.52 518.31 464.4 572.57 684.87 352.1"/>
      <rect class="cls-1" x="248.57" y="54.57" width="202.72" height="82.72" rx="12" ry="12" transform="translate(34.66 275.53) rotate(-45)"/>
      <rect class="cls-1" x="326.56" y="132.56" width="202.72" height="82.72" rx="12" ry="12" transform="translate(2.35 353.53) rotate(-45)"/>
    </g>
  </g>
</svg>